<?xml version="1.0" encoding="UTF-8"?>
<svg height="20px" width="auto" viewBox="0 0 229 128" version="1.1" xmlns="http://www.w3.org/2000/svg" xmlns:xlink="http://www.w3.org/1999/xlink">
    <defs>
        <polygon id="path-1" points="0.578 0.666 49.662 0.666 49.662 49.7499 0.578 49.7499 0.578 0.666"></polygon>
        <polygon id="path-3" points="0.578 0.666 49.662 0.666 49.662 49.7499 0.578 49.7499"></polygon>
    </defs>
    <g id="Page-1" stroke="none" stroke-width="1" fill="none" fill-rule="evenodd">
        <g id="Desktop-HD" transform="translate(-683.000000, -330.000000)">
            <g id="Page-1" transform="translate(683.000000, 329.000000)">
                <path d="M142.2983,53.8797 C141.5513,52.5917 139.6933,52.6037 138.9243,53.8787 C134.0603,61.9407 125.2223,67.3337 115.1203,67.3337 C105.0173,67.3337 96.1803,61.9407 91.3153,53.8787 C90.5463,52.6037 88.6893,52.5917 87.9413,53.8797 C79.4973,68.4277 73.8763,94.8557 73.0043,119.7647 C72.8743,123.4847 75.8333,126.5837 79.5553,126.5837 C79.5553,126.5837 93.5353,128.3337 115.1203,128.3337 C136.7043,128.3337 150.6843,126.5837 150.6843,126.5837 C154.4073,126.5837 157.3663,123.4847 157.2353,119.7647 C156.3633,94.8557 150.7423,68.4277 142.2983,53.8797" id="Fill-1" fill="#004990"></path>
                <path d="M139.662,38.5419 C139.662,52.0959 128.674,63.0839 115.12,63.0839 C101.566,63.0839 90.578,52.0959 90.578,38.5419 C90.578,24.9879 101.566,13.9999 115.12,13.9999 C128.674,13.9999 139.662,24.9879 139.662,38.5419" id="Fill-3" fill="#004990"></path>
                <path d="M78.7363,65.2384 C76.2643,55.2164 73.0633,46.3664 69.2983,39.8794 C68.5513,38.5924 66.6933,38.6034 65.9243,39.8784 C61.0603,47.9404 52.2223,53.3344 42.1203,53.3344 C32.0173,53.3344 23.1803,47.9404 18.3153,39.8784 C17.5463,38.6034 15.6893,38.5924 14.9413,39.8794 C6.4973,54.4284 0.8763,80.8554 0.0043,105.7644 C-0.1257,109.4854 2.8333,112.5844 6.5553,112.5844 C6.5553,112.5844 20.5353,114.3344 42.1203,114.3344 C53.7173,114.3344 63.1153,113.8284 69.3323,113.3614 C70.4873,96.0204 73.8333,78.5044 78.7363,65.2384" id="Fill-5" fill="#004990"></path>
                <path d="M213.2983,39.8797 C212.5513,38.5917 210.6933,38.6037 209.9243,39.8787 C205.0603,47.9407 196.2223,53.3337 186.1203,53.3337 C176.0173,53.3337 167.1803,47.9407 162.3153,39.8787 C161.5463,38.6037 159.6893,38.5917 158.9413,39.8797 C155.5683,45.6907 152.6483,53.4007 150.2983,62.1487 C155.8713,75.7447 159.6803,94.7337 160.9163,113.5047 C167.0733,113.9267 175.7083,114.3337 186.1203,114.3337 C207.7043,114.3337 221.6843,112.5837 221.6843,112.5837 C225.4073,112.5837 228.3663,109.4847 228.2353,105.7647 C227.3633,80.8557 221.7423,54.4277 213.2983,39.8797" id="Fill-7" fill="#004990"></path>
                <path d="M139.662,38.5419 C139.662,52.0959 128.674,63.0839 115.12,63.0839 C101.566,63.0839 90.578,52.0959 90.578,38.5419 C90.578,24.9879 101.566,13.9999 115.12,13.9999 C128.674,13.9999 139.662,24.9879 139.662,38.5419" id="Fill-9" fill="#004990"></path>
                <g id="Group-13" transform="translate(161.000000, 0.334000)">
                    <mask id="mask-2" fill="white">
                        <use xlink:href="#path-1"></use>
                    </mask>
                    <g id="Clip-12"></g>
                    <path d="M49.662,25.2079 C49.662,38.7619 38.674,49.7499 25.12,49.7499 C11.566,49.7499 0.578,38.7619 0.578,25.2079 C0.578,11.6539 11.566,0.6659 25.12,0.6659 C38.674,0.6659 49.662,11.6539 49.662,25.2079" id="Fill-11" fill="#004990" mask="url(#mask-2)"></path>
                </g>
                <g id="Group-16" transform="translate(17.000000, 0.334000)">
                    <mask id="mask-4" fill="white">
                        <use xlink:href="#path-3"></use>
                    </mask>
                    <g id="Clip-15"></g>
                    <path d="M49.662,25.2079 C49.662,38.7619 38.674,49.7499 25.12,49.7499 C11.566,49.7499 0.578,38.7619 0.578,25.2079 C0.578,11.6539 11.566,0.6659 25.12,0.6659 C38.674,0.6659 49.662,11.6539 49.662,25.2079" id="Fill-14" fill="#004990" mask="url(#mask-4)"></path>
                </g>
            </g>
        </g>
    </g>
</svg>
